# xmcd
#
# Track frame offsets: 
#        150
#        21945
#        41371
#        58079
#        76753
#        94886
#        114340
#        134892
#        155485
#        178643
#        199978
#        218820
#
# Disc length: 3219 seconds
#
# Revision: 2
# Processed by: cddbd v1.5.2PL0 Copyright (c) Steve Scherf et al.
# Submitted via: ExactAudioCopy v0.99pb5
#
DISCID=a60c910c
DTITLE=Bee Gees - Still Waters (Polydor, 537 302-2)
DYEAR=1997
DGENRE=Pop
TTITLE0=Alone
TTITLE1=I Surrender
TTITLE2=I Could Not Love You More
TTITLE3=Still Waters Run Deep
TTITLE4=My Lover's Prayer
TTITLE5=With My Eyes Closed
TTITLE6=Irresistible Force
TTITLE7=Closer Than Close
TTITLE8=I Will
TTITLE9=Obsessions
TTITLE10=Miracles Happen
TTITLE11=Smoke And Mirrors
EXTD=
EXTT0=
EXTT1=
EXTT2=
EXTT3=
EXTT4=
EXTT5=
EXTT6=
EXTT7=
EXTT8=
EXTT9=
EXTT10=
EXTT11=
PLAYORDER=
